<?xml version="1.0" encoding="UTF-8" standalone="no"?>
<!-- Created with Inkscape (http://www.inkscape.org/) -->

<svg
   xmlns:dc="http://purl.org/dc/elements/1.1/"
   xmlns:cc="http://creativecommons.org/ns#"
   xmlns:rdf="http://www.w3.org/1999/02/22-rdf-syntax-ns#"
   xmlns:svg="http://www.w3.org/2000/svg"
   xmlns="http://www.w3.org/2000/svg"
   xmlns:sodipodi="http://sodipodi.sourceforge.net/DTD/sodipodi-0.dtd"
   xmlns:inkscape="http://www.inkscape.org/namespaces/inkscape"
   width="172.41364mm"
   height="163.87694mm"
   viewBox="0 0 172.41364 163.87694"
   version="1.1"
   id="svg4334"
   inkscape:version="0.92.2 (5c3e80d, 2017-08-06)"
   sodipodi:docname="muscu.svg">
  <defs
     id="defs4328" />
  <sodipodi:namedview
     id="base"
     pagecolor="#ffffff"
     bordercolor="#666666"
     borderopacity="1.0"
     inkscape:pageopacity="0.0"
     inkscape:pageshadow="2"
     inkscape:zoom="0.82"
     inkscape:cx="18.006983"
     inkscape:cy="371.62024"
     inkscape:document-units="mm"
     inkscape:current-layer="layer1"
     inkscape:document-rotation="0"
     showgrid="false"
     inkscape:window-width="1920"
     inkscape:window-height="1016"
     inkscape:window-x="0"
     inkscape:window-y="27"
     inkscape:window-maximized="1" />
  <metadata
     id="metadata4331">
    <rdf:RDF>
      <cc:Work
         rdf:about="">
        <dc:format>image/svg+xml</dc:format>
        <dc:type
           rdf:resource="http://purl.org/dc/dcmitype/StillImage" />
        <dc:title />
      </cc:Work>
    </rdf:RDF>
  </metadata>
  <g
     inkscape:label="Calque 1"
     inkscape:groupmode="layer"
     id="layer1"
     transform="translate(-24.16206,-49.97675)">
    <g
       transform="matrix(0.26458333,0,0,0.26458333,-72.671147,19.869882)"
       id="g12" />
    <path
       d="m 145.24523,149.834 c 0,1.11438 -0.864,1.97487 -1.97487,1.97487 h -4.98159 c -2.13993,0 -4.11795,-1.37484 -4.71807,-3.43224 l -6.26427,-19.30716 c -0.2574,-0.7776 -1.0287,-1.2033 -1.80342,-0.94932 -0.7713,0.2574 -1.20015,1.03185 -0.94293,1.80342 l 0.94293,2.9178 -57.238828,18.71028 c -0.5139,0.1683 -1.11447,0.2574 -1.62882,0.2574 -2.31777,0 -4.37517,-1.46052 -5.06412,-3.68937 -0.4284,-1.29222 -0.3429,-2.7495 0.3429,-4.03857 0.603,-1.28268 1.71765,-2.2257 3.08925,-2.66067 l 14.93208,-4.88952 c 4.464,-1.46043 8.23905,-4.63545 10.21392,-8.66457 1.20015,-2.48913 3.26079,-4.37832 5.83569,-5.40702 l 21.796378,-8.58519 c 1.28583,-0.4257 2.48922,-0.5967 3.77505,-0.5967 5.23557,0 9.95679,3.34647 11.58561,8.40744 l 7.21035,22.39641 h -0.09 c -0.8541,0 -1.45728,0.603 -1.45728,1.37799 0,0.8541 0.603,1.45728 1.45728,1.45728 0,0 2.83527,0.09 3.17502,0.2574 1.11762,0.4284 1.80657,1.46052 1.80657,2.66067 z m 4.88943,-22.5711 c -4.54977,1.45737 -9.52497,0.4284 -13.13181,-2.83212 l -1.20015,-3.6036 c -0.5967,-2.14632 -1.71765,-3.9465 -3.17493,-5.49594 -0.3402,-6.0039 3.52107,-11.57922 9.18522,-13.47147 7.03584,-2.232094 14.58279,1.54935 16.81803,8.58195 2.31768,6.95331 -1.54629,14.50341 -8.49636,16.82118 v 0"
       style="fill:#201d1d;fill-opacity:1;fill-rule:evenodd;stroke:none;stroke-width:0.31750003"
       id="path114"
       inkscape:connector-curvature="0" />
  </g>
</svg>
