<?xml version="1.0" encoding="UTF-8" standalone="no"?>
<!-- Created with Inkscape (http://www.inkscape.org/) -->

<svg
   xmlns:dc="http://purl.org/dc/elements/1.1/"
   xmlns:cc="http://creativecommons.org/ns#"
   xmlns:rdf="http://www.w3.org/1999/02/22-rdf-syntax-ns#"
   xmlns:svg="http://www.w3.org/2000/svg"
   xmlns="http://www.w3.org/2000/svg"
   xmlns:sodipodi="http://sodipodi.sourceforge.net/DTD/sodipodi-0.dtd"
   xmlns:inkscape="http://www.inkscape.org/namespaces/inkscape"
   width="172.41364mm"
   height="163.87694mm"
   viewBox="0 0 172.41364 163.87694"
   version="1.1"
   id="svg4334"
   inkscape:version="0.92.2 (5c3e80d, 2017-08-06)"
   sodipodi:docname="triathlon.svg">
  <defs
     id="defs4328" />
  <sodipodi:namedview
     id="base"
     pagecolor="#ffffff"
     bordercolor="#666666"
     borderopacity="1.0"
     inkscape:pageopacity="0.0"
     inkscape:pageshadow="2"
     inkscape:zoom="1.1596551"
     inkscape:cx="165.44764"
     inkscape:cy="283.87314"
     inkscape:document-units="mm"
     inkscape:current-layer="layer1"
     inkscape:document-rotation="0"
     showgrid="true"
     inkscape:window-width="1920"
     inkscape:window-height="1016"
     inkscape:window-x="0"
     inkscape:window-y="27"
     inkscape:window-maximized="1"
     inkscape:snap-grids="true"
     inkscape:measure-start="330,360"
     inkscape:measure-end="620,420">
    <inkscape:grid
       type="xygrid"
       id="grid4285" />
  </sodipodi:namedview>
  <metadata
     id="metadata4331">
    <rdf:RDF>
      <cc:Work
         rdf:about="">
        <dc:format>image/svg+xml</dc:format>
        <dc:type
           rdf:resource="http://purl.org/dc/dcmitype/StillImage" />
        <dc:title />
      </cc:Work>
    </rdf:RDF>
  </metadata>
  <g
     inkscape:label="Calque 1"
     inkscape:groupmode="layer"
     id="layer1"
     transform="translate(-24.16206,-49.97675)">
    <g
       transform="matrix(0.26458333,0,0,0.26458333,-72.671147,19.869882)"
       id="g12">
      <flowRoot
         xml:space="preserve"
         id="flowRoot4270"
         style="fill:black;fill-opacity:1;stroke:none;font-family:sans-serif;font-style:normal;font-weight:normal;font-size:40px"><flowRegion
           id="flowRegion4272"><rect
             id="rect4274"
             width="86.151871"
             height="75.986092"
             x="227.92017"
             y="280.72934" /></flowRegion><flowPara
           id="flowPara4276" /></flowRoot>      <flowRoot
         xml:space="preserve"
         id="flowRoot4278"
         style="fill:black;fill-opacity:1;stroke:none;font-family:sans-serif;font-style:normal;font-weight:normal;font-size:40px"><flowRegion
           id="flowRegion4280"><rect
             id="rect4282"
             width="86.837845"
             height="78.301254"
             x="228.0726"
             y="282.83014" /></flowRegion><flowPara
           id="flowPara4284" /></flowRoot>    </g>
    <ellipse
       style="opacity:1;vector-effect:none;fill:none;fill-opacity:1;fill-rule:evenodd;stroke:#000000;stroke-width:2.16499996;stroke-linecap:butt;stroke-linejoin:miter;stroke-miterlimit:4;stroke-dasharray:none;stroke-dashoffset:0;stroke-opacity:0.97254902"
       id="path4887"
       ry="80.855972"
       rx="85.124321"
       cy="131.91522"
       cx="110.36888" />
    <path
       d="m 45.093778,167.04995 c 0,0 0.08625,-0.24765 0.247121,-0.71119 0.174096,-0.45774 0.436563,-1.14407 0.894292,-1.95317 0.450321,-0.81226 1.087437,-1.76953 2.016125,-2.71251 0.914929,-0.95196 2.138362,-1.87218 3.640666,-2.5675 1.497541,-0.7001 3.271837,-1.16205 5.191654,-1.2155 0.959379,-0.0297 1.953683,0.0339 2.977621,0.26141 0.508,0.1095 1.04193,0.28786 1.551517,0.53287 0.413808,0.19473 0.916517,0.45084 1.35255,0.70326 1.791758,1.01759 3.451754,2.28759 5.046132,3.57875 1.6002,1.2843 3.197754,2.54265 4.903259,3.48826 0.848784,0.47573 1.725084,0.87525 2.629959,1.14618 0.889528,0.272 1.863195,0.44504 2.735791,0.47891 l 0.768879,0.0159 c 0.257704,0.009 0.450849,-0.0163 0.679449,-0.0201 0.218018,0 0.445559,-0.0297 0.672572,-0.0588 0.227013,-0.0239 0.452967,-0.0513 0.672041,-0.10365 0.885825,-0.16829 1.729317,-0.46886 2.525712,-0.87737 1.588028,-0.82815 3.033185,-2.00818 4.425422,-3.13584 0.693738,-0.55774 1.39065,-1.13136 2.106081,-1.62772 0.752475,-0.52122 1.522413,-0.92498 2.317222,-1.22078 1.584854,-0.60748 3.216804,-0.58791 4.512734,-0.25453 1.3118,0.33285 2.30346,0.95727 3.054883,1.50124 0.74771,0.5588 1.25571,1.0811 1.59491,1.43616 0.33708,0.35931 0.50218,0.56304 0.50218,0.56304 0,0 -0.1995,-0.17092 -0.58685,-0.4699 -0.38259,-0.30216 -0.96679,-0.72072 -1.748373,-1.16258 -0.78211,-0.43498 -1.79281,-0.8599 -2.98291,-1.03876 -1.18904,-0.17832 -2.55005,-0.009 -3.86027,0.60748 -0.651404,0.30639 -1.304926,0.72338 -1.901294,1.21761 -0.142875,0.11115 -0.31221,0.26777 -0.471488,0.40482 -0.151344,0.1413 -0.303744,0.28416 -0.458787,0.4281 -0.318033,0.29369 -0.64135,0.59213 -0.969435,0.89481 -0.656697,0.6096 -1.339849,1.24514 -2.082799,1.87431 -0.742424,0.62813 -1.548341,1.25837 -2.479146,1.77588 -0.923396,0.52442 -1.9558,0.94457 -3.039534,1.19592 -0.269346,0.0745 -0.542396,0.1206 -0.817562,0.16193 -0.274638,0.0455 -0.549804,0.0921 -0.841375,0.1074 -0.279929,0.019 -0.595313,0.0545 -0.848784,0.0555 l -0.769407,-0.003 c -2.304522,-0.0582 -4.522788,-0.75407 -6.479646,-1.83515 -1.953155,-1.08267 -3.612621,-2.47279 -5.202237,-3.77085 -1.592793,-1.2954 -3.089276,-2.57862 -4.674129,-3.55387 -0.40058,-0.25242 -0.75618,-0.4535 -1.202268,-0.68739 -0.349779,-0.18944 -0.720195,-0.32174 -1.12395,-0.44504 -0.801687,-0.23758 -1.657349,-0.35613 -2.489729,-0.38523 -1.671108,-0.0523 -3.275013,0.21644 -4.670953,0.70538 -1.390121,0.50641 -2.592389,1.20385 -3.544889,1.97592 -0.951441,0.77416 -1.689099,1.58115 -2.233611,2.29657 -0.542925,0.71967 -0.926571,1.32027 -1.173163,1.74519 -0.238655,0.42863 -0.366183,0.65777 -0.366183,0.65777"
       style="fill:#100f0d;fill-opacity:1;fill-rule:nonzero;stroke:none;stroke-width:0.05291667"
       id="path14"
       inkscape:connector-curvature="0" />
    <path
       d="m 52.018453,165.04409 c 0,0 0.05969,-0.11304 0.17145,-0.32514 0.05714,-0.10548 0.1251,-0.23558 0.206375,-0.38988 0.08064,-0.15372 0.165096,-0.33337 0.319405,-0.50545 0.144774,-0.18162 0.305435,-0.38227 0.479425,-0.60135 0.192405,-0.20257 0.436879,-0.38228 0.684529,-0.59755 0.250191,-0.21207 0.576581,-0.34734 0.897255,-0.53975 0.337185,-0.14544 0.717549,-0.26542 1.112521,-0.36321 0.802003,-0.15174 1.704974,-0.18922 2.6162,-0.0126 0.90805,0.16884 1.852294,0.4445 2.742566,0.88837 0.902334,0.42354 1.795778,0.93788 2.620009,1.5748 0.42291,0.30416 0.816609,0.65342 1.21412,1.0014 l 1.112519,1.07313 c 0.708659,0.69025 1.42875,1.34367 2.210435,1.92851 0.378459,0.30479 0.782321,0.56323 1.162686,0.84899 0.400685,0.24829 0.782319,0.52705 1.187449,0.73977 0.79248,0.47055 1.601471,0.83058 2.380615,1.14555 0.789305,0.27813 1.553844,0.50419 2.277745,0.62039 0.7239,0.1194 1.402079,0.16128 2.003426,0.14544 0.299719,-0.0197 0.584834,-0.0274 0.846454,-0.0528 0.25908,-0.0412 0.498474,-0.0786 0.714376,-0.11376 0.438149,-0.0598 0.76327,-0.18734 0.998219,-0.23685 0.23241,-0.061 0.354965,-0.094 0.354965,-0.094 0,0 -0.113016,0.0577 -0.325755,0.16578 -0.219074,0.0926 -0.518795,0.30353 -0.949959,0.43687 -0.215901,0.0737 -0.453392,0.15498 -0.713106,0.24386 -0.26289,0.0774 -0.556895,0.12132 -0.870585,0.18921 -0.626745,0.111 -1.353819,0.1728 -2.144396,0.12438 -0.40005,0.004 -0.803274,-0.087 -1.231265,-0.13014 -0.421639,-0.0698 -0.848359,-0.18351 -1.28905,-0.294 -0.86487,-0.26796 -1.777998,-0.58166 -2.644138,-1.05409 -0.87757,-0.44831 -1.756412,-0.96901 -2.579372,-1.59196 -0.829309,-0.60072 -1.63068,-1.29984 -2.386328,-2.01739 l -1.060451,-1.05854 c -0.359409,-0.3226 -0.714374,-0.65025 -1.099185,-0.936 -0.753746,-0.59056 -1.5367,-1.1284 -2.343784,-1.54559 -0.798832,-0.43625 -1.61417,-0.75691 -2.406016,-0.97219 -0.200024,-0.0451 -0.396874,-0.0894 -0.591184,-0.13266 -0.194945,-0.0412 -0.386716,-0.0412 -0.577851,-0.0698 -0.38354,-0.0692 -0.744854,-0.0162 -1.102994,-0.0162 -0.346711,0.0438 -0.680721,0.11748 -0.993775,0.19875 -0.294005,0.12888 -0.605157,0.20194 -0.852171,0.3594 -0.245744,0.1575 -0.49022,0.2953 -0.699134,0.44452 -0.193677,0.17082 -0.371475,0.32765 -0.532131,0.46926 -0.329565,0.28638 -0.522604,0.59754 -0.68453,0.769 -0.153666,0.1835 -0.235584,0.28192 -0.235584,0.28192"
       style="fill:#100f0d;fill-opacity:1;fill-rule:nonzero;stroke:none;stroke-width:0.0635"
       id="path16"
       inkscape:connector-curvature="0" />
    <path
       d="m 65.231533,154.89933 c 5.95757,-2.55842 11.301095,7.0758 17.695544,6.6059 3.319145,-0.24384 5.078096,-3.54774 4.71932,-6.6059 -0.372744,-3.15785 -2.766695,-5.72518 -4.77774,-8.21182 -1.895476,-2.34316 -6.784341,-6.65291 -1.068706,-7.30822 2.83972,-0.32576 8.797925,-0.50673 8.912225,-3.35662 0.236855,-5.89724 -15.725773,-1.75133 -18.166714,1.41669 -2.707005,3.51282 5.023485,11.58811 6.370319,14.86408 -3.852544,0.84518 -11.099164,-1.61543 -13.448664,2.35967"
       style="fill:#100f0d;fill-opacity:1;fill-rule:nonzero;stroke:none;stroke-width:0.0635"
       id="path18"
       inkscape:connector-curvature="0" />
    <path
       d="m 102.03803,152.65714 c 0,3.19278 -2.58762,5.78041 -5.781033,5.78041 -3.192147,0 -5.77977,-2.58763 -5.77977,-5.78041 0,-3.19215 2.587623,-5.78041 5.77977,-5.78041 3.193413,0 5.781033,2.58826 5.781033,5.78041"
       style="fill:#100f0d;fill-opacity:1;fill-rule:nonzero;stroke:none;stroke-width:0.0635"
       id="path20"
       inkscape:connector-curvature="0" />
    <path
       d="m 91.363231,91.060171 c -7.464421,0.01332 -13.504555,6.075045 -13.490587,13.541379 0.0144,7.46505 6.076332,13.5058 13.540747,13.49184 7.466332,-0.0144 13.507719,-6.07695 13.493749,-13.54202 -0.0144,-7.465049 -6.077587,-13.505804 -13.543909,-13.491199 z m 0.0036,2.62509 c 6.005832,-0.01008 10.900399,4.865369 10.912459,10.871189 0.01,6.00457 -4.865987,10.89978 -10.871191,10.90994 -6.004561,0.0108 -10.897861,-4.86601 -10.909291,-10.8693 -0.0126,-6.00582 4.863474,-10.901035 10.868035,-10.911829"
       style="fill:#100f0d;fill-opacity:1;fill-rule:nonzero;stroke:none;stroke-width:0.0635"
       id="path96"
       inkscape:connector-curvature="0" />
    <path
       d="m 131.20248,90.98524 c -7.46378,0.01332 -13.5039,6.07695 -13.49057,13.54264 0.0144,7.46379 6.07759,13.50455 13.54201,13.4912 7.46633,-0.0144 13.50454,-6.07821 13.49121,-13.54263 -0.0144,-7.465695 -6.07632,-13.505815 -13.54265,-13.49121 z m 0.004,2.625725 c 6.0052,-0.0108 10.9004,4.86537 10.9112,10.871195 0.0108,6.0033 -4.86536,10.89915 -10.86992,10.90931 -6.00376,0.0126 -10.89834,-4.86474 -10.91041,-10.86867 -0.008,-6.005824 4.86473,-10.899769 10.8693,-10.911835"
       style="fill:#100f0d;fill-opacity:1;fill-rule:nonzero;stroke:none;stroke-width:0.0635"
       id="path98"
       inkscape:connector-curvature="0" />
    <path
       d="m 117.53983,71.74728 c 2.75082,-0.005 4.97713,-2.23901 4.97141,-4.989828 -0.004,-2.750187 -2.23901,-4.97713 -4.98919,-4.97205 -2.75019,0.0058 -4.9765,2.24028 -4.97205,4.989828 0.006,2.751454 2.23965,4.977132 4.98983,4.97205"
       style="fill:#100f0d;fill-opacity:1;fill-rule:nonzero;stroke:none;stroke-width:0.0635"
       id="path100"
       inkscape:connector-curvature="0" />
    <path
       d="m 128.11829,80.209291 -9.16877,0.0171 -6.6567,-10.231755 c -1.01408,-1.823676 -3.08419,-1.795736 -4.11224,-0.46922 L 96.290823,81.643755 c -2.095484,2.155191 -1.30747,4.920616 0.72581,6.189346 l 10.934057,6.645909 0.0209,10.72324 c 0.004,1.72276 1.40208,3.11658 3.12484,3.1134 1.72274,-0.004 3.1172,-1.40271 3.11403,-3.12483 l -0.0266,-14.229074 c -0.004,-1.722755 -1.27761,-2.72034 -2.71081,-3.538857 -6.1e-4,-0.0013 -6.1e-4,-0.0013 -6.1e-4,-0.0013 l -5.28955,-3.213734 6.45985,-6.493511 3.57695,5.550536 c 0.38798,0.612141 0.83438,0.903605 1.64084,0.9017 0.007,0 10.26605,-0.0171 10.26605,-0.0171 1.0871,-0.0019 1.96787,-0.88519 1.96532,-1.972944 -0.002,-1.089026 -0.88582,-1.969772 -1.97359,-1.967231"
       style="fill:#100f0d;fill-opacity:1;fill-rule:nonzero;stroke:none;stroke-width:0.0635"
       id="path102"
       inkscape:connector-curvature="0" />
    <path
       d="m 131.8813,103.99957 -2.17296,0.53402 -4.15926,-16.93163 2.17233,-0.534034 4.15989,16.931644"
       style="fill:#100f0d;fill-opacity:1;fill-rule:nonzero;stroke:none;stroke-width:0.0635"
       id="path104"
       inkscape:connector-curvature="0" />
    <path
       d="m 91.709947,104.83522 -1.958976,-1.0814 9.581502,-17.35074 1.958977,1.081405 -9.581503,17.350735"
       style="fill:#100f0d;fill-opacity:1;fill-rule:nonzero;stroke:none;stroke-width:0.0635"
       id="path106"
       inkscape:connector-curvature="0" />
    <path
       d="m 92.690371,104.34818 c 0,1.43383 -1.162044,2.59587 -2.5965,2.59587 -1.432572,0 -2.595264,-1.16204 -2.595264,-2.59587 0,-1.4332 1.162692,-2.59525 2.595264,-2.59525 1.434456,0 2.5965,1.16205 2.5965,2.59525"
       style="fill:#100f0d;fill-opacity:1;fill-rule:nonzero;stroke:none;stroke-width:0.0635"
       id="path108"
       inkscape:connector-curvature="0" />
    <path
       d="m 166.34597,134.5864 c 0,2.94831 -2.39013,5.33768 -5.33781,5.33768 -2.94767,0 -5.33718,-2.38937 -5.33718,-5.33768 0,-2.94704 2.38951,-5.33666 5.33718,-5.33666 2.94768,0 5.33781,2.38962 5.33781,5.33666"
       style="fill:#100f0d;fill-opacity:1;fill-rule:nonzero;stroke:none;stroke-width:0.0635"
       id="path214"
       inkscape:connector-curvature="0" />
    <path
       d="m 153.35958,159.44914 c -1.47447,2.40728 -4.61963,3.16033 -7.02501,1.68598 v 0 c -2.40537,-1.47517 -3.15975,-4.62038 -1.68465,-7.02646 l 7.27267,-11.8606 c 1.47572,-2.40582 4.62025,-3.15836 7.02563,-1.68395 v 0 c 2.40601,1.47586 3.15975,4.61963 1.68403,7.02563 l -7.27267,11.8594"
       style="fill:#100f0d;fill-opacity:1;fill-rule:nonzero;stroke:none;stroke-width:0.0635"
       id="path216"
       inkscape:connector-curvature="0" />
    <path
       d="m 148.48977,168.53536 c 0,1.56266 -1.17348,2.83018 -2.61938,2.83018 v 0 c -1.44779,0 -2.62001,-1.26752 -2.62001,-2.83018 v -10.06107 c 0,-1.56395 1.17222,-2.82894 2.62001,-2.82894 v 0 c 1.4459,0 2.61938,1.26499 2.61938,2.82894 v 10.06107"
       style="fill:#100f0d;fill-opacity:1;fill-rule:nonzero;stroke:none;stroke-width:0.0635"
       id="path218"
       inkscape:connector-curvature="0" />
    <path
       d="m 134.16607,169.99134 c -1.55129,-0.17982 -2.67588,-1.48972 -2.50888,-2.9287 v 0 c 0.16632,-1.43694 1.55956,-2.45541 3.11277,-2.27506 l 9.99491,1.15816 c 1.55192,0.17982 2.67588,1.49022 2.50887,2.92794 v 0 c -0.16632,1.43644 -1.56018,2.45567 -3.11149,2.27583 l -9.99618,-1.15817"
       style="fill:#100f0d;fill-opacity:1;fill-rule:nonzero;stroke:none;stroke-width:0.0635"
       id="path220"
       inkscape:connector-curvature="0" />
    <path
       d="m 144.74517,136.94162 c -1.44018,-0.44151 -2.91273,0.1377 -3.28802,1.29452 v 0 c -0.3753,1.15442 0.4883,2.44926 1.92912,2.89128 l 9.27926,2.84233 c 1.44018,0.44175 2.91338,-0.13842 3.28931,-1.29358 v 0 c 0.37401,-1.15683 -0.48895,-2.45167 -1.93041,-2.89171 l -9.27926,-2.84284"
       style="fill:#100f0d;fill-opacity:1;fill-rule:nonzero;stroke:none;stroke-width:0.0635"
       id="path222"
       inkscape:connector-curvature="0" />
    <path
       d="m 141.68892,148.5162 c 0.11628,1.30621 1.19,2.27585 2.40093,2.16917 v 0 c 1.21032,-0.10716 2.09614,-1.25585 1.9793,-2.56083 l -0.75057,-8.41248 c -0.11628,-1.30423 -1.19125,-2.2771 -2.40095,-2.16795 v 0 c -1.20967,0.10548 -2.09548,1.25285 -1.97802,2.55835 l 0.74931,8.41374"
       style="fill:#100f0d;fill-opacity:1;fill-rule:nonzero;stroke:none;stroke-width:0.0635"
       id="path224"
       inkscape:connector-curvature="0" />
    <path
       d="m 161.10533,156.0943 c 0.52957,1.4104 1.88784,2.2225 3.03402,1.81249 v 0 c 1.14363,-0.40978 1.64019,-1.88417 1.10934,-3.29458 L 161.82795,145.53 c -0.53214,-1.4099 -1.89104,-2.22002 -3.03404,-1.813 v 0 c -1.1449,0.41003 -1.6421,1.88666 -1.10998,3.2963 l 3.4214,9.081"
       style="fill:#100f0d;fill-opacity:1;fill-rule:nonzero;stroke:none;stroke-width:0.0635"
       id="path226"
       inkscape:connector-curvature="0" />
    <path
       d="m 172.134,151.43994 c 0.96265,-0.89046 1.07442,-2.33312 0.24955,-3.22586 v 0 c -0.82422,-0.89172 -2.27458,-0.89021 -3.2366,-0.001 l -6.1995,5.73581 c -0.96267,0.88977 -1.07378,2.33439 -0.24956,3.22459 v 0 c 0.82361,0.89345 2.27266,0.89345 3.23469,10e-4 l 6.20142,-5.73583"
       style="fill:#100f0d;fill-opacity:1;fill-rule:nonzero;stroke:none;stroke-width:0.0635"
       id="path228"
       inkscape:connector-curvature="0" />
    <path
       d="m 159.70197,166.54201 c 1.16966,1.03564 1.34176,2.75458 0.38352,3.83731 v 0 c -0.95821,1.08395 -2.68604,1.12389 -3.85444,0.0882 l -7.5387,-6.66375 c -1.16906,-1.03564 -1.34304,-2.75331 -0.38292,-3.83853 v 0 c 0.95821,-1.08273 2.68414,-1.12388 3.85382,-0.0871 l 7.53872,6.66377"
       style="fill:#100f0d;fill-opacity:1;fill-rule:nonzero;stroke:none;stroke-width:0.0635"
       id="path230"
       inkscape:connector-curvature="0" />
    <path
       d="m 155.93577,180.6904 c -0.54735,1.4662 -2.08724,2.24281 -3.44422,1.73678 v 0 c -1.35638,-0.50597 -2.01233,-2.10242 -1.46622,-3.56692 l 3.51727,-9.42703 c 0.54673,-1.46493 2.08724,-2.24109 3.44359,-1.73558 v 0 c 1.35572,0.50483 2.01168,2.10369 1.46558,3.56744 l -3.516,9.42531"
       style="fill:#100f0d;fill-opacity:1;fill-rule:nonzero;stroke:none;stroke-width:0.0635"
       id="path232"
       inkscape:connector-curvature="0" />
    <path
       d="m 123.23963,169.44911 c -1.26683,0 -2.40918,-0.42163 -3.23025,-1.54756 -0.46165,-0.63252 -0.32258,-1.51827 0.30861,-1.97942 0.63121,-0.45886 1.51765,-0.32245 1.97739,0.31007 0.41911,0.57278 1.95199,1.01898 7.53174,-2.42018 l 0.18606,-0.11484 c 1.28841,-0.79128 2.56413,-1.73157 3.7954,-2.6414 2.85876,-2.1089 5.81468,-4.28899 9.40943,-5.04209 4.14846,-0.86544 7.79397,0.69481 11.31886,2.20415 4.27926,1.83509 7.97498,3.4196 12.25296,0.82753 1.05284,-0.63653 2.22632,-1.7996 3.49187,-3.45579 0.47562,-0.61964 1.36335,-0.74042 1.98438,-0.26543 0.62166,0.47498 0.74104,1.36328 0.26605,1.98437 -1.5024,1.96602 -2.90131,3.32606 -4.27482,4.15849 -5.52259,3.34391 -10.4705,1.22313 -14.8355,-0.64764 -3.2658,-1.39751 -6.34999,-2.71836 -9.62406,-2.03371 -2.99084,0.62528 -5.57402,2.53027 -8.30833,4.54767 -1.28016,0.94558 -2.60287,1.92165 -3.99289,2.77642 l -0.18477,0.11232 c -1.78753,1.1028 -5.23494,3.22707 -8.07213,3.22707"
       style="fill:#100f0d;fill-opacity:1;fill-rule:nonzero;stroke:none;stroke-width:0.0635"
       id="path234"
       inkscape:connector-curvature="0" />
  </g>
</svg>
